<?xml version="1.0" standalone="no"?>
<!DOCTYPE svg PUBLIC "-//W3C//DTD SVG 20010904//EN"
 "http://www.w3.org/TR/2001/REC-SVG-20010904/DTD/svg10.dtd">
<svg version="1.0" xmlns="http://www.w3.org/2000/svg"
 width="300.000000pt" height="44.000000pt" viewBox="0 0 300.000000 44.000000"
 preserveAspectRatio="xMidYMid meet">

<g transform="translate(0.000000,44.000000) scale(0.100000,-0.100000)"
fill="#000000" stroke="none">
<path d="M677 433 c-4 -3 -7 -100 -7 -215 l0 -209 63 3 62 3 5 80 5 80 45 0
45 0 3 -83 3 -83 62 3 62 3 0 210 0 210 -60 0 -60 0 -5 -75 -5 -75 -45 0 -45
0 -3 55 c-4 99 -5 100 -66 100 -29 0 -56 -3 -59 -7z"/>
<path d="M1137 411 c-6 -18 -21 -32 -34 -36 -23 -5 -24 -6 -21 -153 3 -141 4
-147 24 -150 15 -2 24 -12 28 -33 l6 -30 122 3 c121 3 122 3 128 28 3 14 14
27 25 29 11 2 23 8 27 15 4 6 8 68 8 138 0 102 -3 130 -16 142 -8 9 -22 16
-30 16 -8 0 -14 10 -14 24 0 32 -14 36 -137 36 l-105 0 -11 -29z m173 -192 l0
-100 -47 3 -48 3 -3 98 -3 97 51 0 50 0 0 -101z"/>
<path d="M1563 434 c-7 -3 -13 -17 -13 -30 0 -16 -6 -24 -18 -24 -37 0 -42
-20 -42 -154 0 -72 4 -136 8 -142 4 -7 16 -13 27 -15 11 -2 22 -15 25 -29 6
-25 7 -25 127 -28 l122 -3 3 28 c2 19 10 29 28 33 l25 6 0 144 c0 144 0 144
-25 157 -14 7 -27 23 -30 35 -6 22 -10 23 -115 25 -61 1 -116 -1 -122 -3z
m165 -211 l-3 -98 -50 0 -50 0 -3 84 c-2 46 -1 90 2 98 4 8 23 13 56 13 l51 0
-3 -97z"/>
<path d="M1915 427 c-3 -7 -4 -102 -3 -212 l3 -200 60 0 60 0 5 55 5 55 80 5
c74 5 80 7 85 30 4 15 15 26 30 30 24 6 25 10 28 92 l3 86 -30 10 c-19 7 -31
18 -33 34 -3 23 -5 23 -146 26 -110 2 -144 0 -147 -11z m220 -147 l0 -45 -45
0 c-44 0 -45 1 -48 33 -5 54 2 64 50 60 l43 -3 0 -45z"/>
<path d="M2312 428 c-7 -7 -12 -33 -12 -58 0 -25 5 -51 12 -58 17 -17 76 -15
94 2 18 19 18 93 0 112 -18 17 -77 19 -94 2z m78 -58 c0 -39 -1 -40 -35 -40
-34 0 -35 1 -35 40 0 39 1 40 35 40 34 0 35 -1 35 -40z"/>
<path d="M2334 385 c-4 -8 -4 -22 0 -30 7 -19 46 -20 46 0 0 9 -6 12 -15 9 -8
-4 -15 -1 -15 5 0 6 7 11 15 11 8 0 15 5 15 10 0 16 -40 12 -46 -5z"/>
</g>
</svg>
