<svg
    viewBox="0 0 1554 227"
    fill="none"
    xmlns="http://www.w3.org/2000/svg"
>
    <path
        fill="#ffffff"
        d="M374.3 167.5H302c-6.3 0-9.3-2.6-9.3-8.2v-12.9c0-6 3-8.9 9.3-8.9h65.2c10.6 0 15.5-5.3 15.5-15.5v-20.4c0-10.3-5-15.2-15.5-15.2H302c-6.3 0-9.3-3-9.3-8.9v-9.2c0-6.3 3-9.6 9.3-9.6h67.5c10.6 0 15.5-5.3 15.5-15.5v-27C385 5.9 380.1 1 369.5 1H240.1c-9.6 0-13.9 4.3-13.9 13.8v197.9c0 9.2 4.3 13.8 13.9 13.8h134.2c10.5 0 15.5-5.3 15.5-15.5v-28c0-10.2-5-15.5-15.5-15.5ZM576 136.8h-8.8c-7 0-10.6-3.3-10.6-9.5V118c0-7 3.6-10.3 10.6-10.3h6.2c8.6 0 12.9-5.2 12.9-15.5V51.5c0-11.6-4.6-17.2-13.5-17.2h-8.3c-7.6 0-11.2-3.3-11.2-9.9v-8.2C553.3 5.9 547 1 534.8 1H418.1c-9.5 0-13.8 4.3-13.8 13.8v199.5c0 8 5 12.2 14.8 12.2h37c9.8 0 14.8-5 14.8-14.8V157c0-6 2.6-9 7.6-9h30c11.8 0 17.8 6 17.8 18.2v45.5c0 9.9 5.3 14.8 15.1 14.8h35c9.9 0 14.8-5 14.8-14.8v-58c0-11.3-5-16.9-15.1-16.9Zm-60.3-52.7c0 8.9-4 13.5-11.2 13.5h-27c-4.3 0-6.6-2.6-6.6-7V67.4c0-5.6 2.6-8.3 7.9-8.3h25.7c7.3 0 11.2 4 11.2 12.2v12.9ZM846.8 1h-65.6c-9.3 0-13.6 4.3-13.6 13.8v23.5c0 4.3-2.3 6.9-6.9 6.9h-9.5c-4.7 0-7.3 2.3-7.3 7.6v22.7c0 4-1.6 5.6-5 5.6h-12.1c-3.3 0-5-1.6-5-5.6V52.8c0-5.3-2.3-7.6-7.3-7.6H705c-4.6 0-6.6-2.7-6.6-7V14.9c0-9.5-4.6-13.8-13.2-13.8h-64.3c-10.2 0-15.2 4.6-15.2 14.5v196.2c0 9.9 5 14.8 15.2 14.8h34.3c10.2 0 15.5-5 15.5-14.8V110.5c0-5.3 2-7.6 6.3-7.6h6.9c3.6 0 5.3 2.3 5.3 7.6v21.7c0 6 3 9 7.9 9h7.5c4.7 0 7 2 7 6.5v21.1c0 7 3.3 10.6 9.9 10.6h24.7c6.6 0 9.9-3.7 9.9-10.6v-21c0-4.7 2.3-6.7 6.9-6.7h7.6c5 0 7.6-3 7.6-8.9v-21.7c0-5.3 2-7.6 5.6-7.6h6.9c4.3 0 6.3 2.3 6.3 7.6v101.2c0 9.9 5.2 14.8 15.5 14.8h34.2c10.3 0 15.2-5 15.2-14.8V15.5C862 5.6 857 1 846.8 1Zm206 74.2h-5.6c-5.6 0-8.5-2.7-8.5-8.6V51.1c0-9.9-4.3-15.1-13.2-15.1h-8.6c-5.6 0-8.3-2.7-8.3-8.3V15.2c0-9.6-4.6-14.2-13.8-14.2h-46.5c-9.5 0-13.8 4.6-13.8 14.2v12.5c0 5.6-3 8.3-8.3 8.3h-8.6c-8.9 0-13.5 5.2-13.5 15.1v15.5c0 6-2.6 8.6-8.2 8.6h-5.6c-9 0-13.2 5.3-13.2 15.8v120.7c0 9.9 5.3 14.8 15.2 14.8h35.2c10 0 14.9-4.3 14.9-12.2v-26c0-4 2.3-6 6.6-6h44.8c4.6 0 6.6 2 6.6 6v26c0 8 5.3 12.2 15.2 12.2h35.2c10 0 14.9-5 14.9-14.8V91c0-10.5-4-15.8-12.9-15.8Zm-51.4 50.8c0 3.6-1.7 5.6-5.6 5.6h-48.5c-4 0-5.6-1-5.6-4.6v-17.8c0-4.3 1.7-7.3 5.6-7.3h3.3c5 0 7.6-3 7.6-8.6V77.8c0-4 1.6-5.6 5.3-5.6h16.1c3.7 0 5.3 1.7 5.3 5.6v15.5c0 5.6 2.3 8.6 7.6 8.6h3.3c4 0 5.6 2.3 5.6 6.3V126ZM1268.1 1h-29c-9.5 0-14.2 4-14.2 12.2v71.2c0 4-2 6.3-5.6 6.3h-15.1c-3.7 0-6-2.3-6-6.3v-29c0-8.2-3.6-12.5-10.9-12.5h-17.8c-4.6 0-6.6-2-6.6-6.6V19c.1-12-5.9-18-17.4-18h-50.8c-9.5 0-14.2 4.6-14.2 14.5v196.2c0 9.9 4.7 14.8 14.2 14.8h32c9.5 0 14.8-4.3 14.8-12.2V124c0-4 1.3-6 5.3-6h19.1c4 0 6 2 6 6v33c0 8.2 3.3 12.5 10.5 12.5h22.4c4.6 0 6.6 2 6.6 6.6v32c0 12.5 6 18.4 17.5 18.4h39.2c9.6 0 14.9-5 14.9-14.8V15.5c0-9.9-5.3-14.5-14.9-14.5Zm199.7 111.4h-4.2c-6 0-9-3-9-9.2v-5c0-9.8-5.2-14.4-16.1-14.4h-66.6c-7 0-10.2-3.3-10.2-10.3V56.1c0-6 3-8.6 8.9-8.6h33c5.2 0 7.9 2.3 7.9 7.2v8c0 5.6 3 8.5 8.5 8.5h44.5c9 0 13.6-5 13.6-15.2V45.5c0-10.2-4.3-15.5-12.6-15.5h-4.6c-7 0-10.2-3-10.2-9v-6.2c0-9.2-5.6-13.8-17.2-13.8H1340c-11.2 0-16.8 4.6-16.8 14.5v7c0 6.2-3.3 9.1-10.2 9.1h-3c-8.9 0-13.5 5-13.5 15.2v49.5c0 9.9 4.3 14.8 12.8 14.8h4c6 0 9 3 9 9.2v4.7c0 10.2 4.5 14.8 14.8 14.8h66.9c6.9 0 10.5 3.6 10.5 10.9v13.8c0 7.3-3.3 11-9.5 11h-37c-5 0-7.5-2.4-7.5-7.7v-4c0-7.5-4-11.1-12-11.1h-39.2c-8.9 0-13.5 4.6-13.5 13.8v18.8c0 9.2 4.3 13.9 13.2 13.9h3.3c6.6 0 10 3 10 8.5v5.3c0 9 4.9 13.5 14.8 13.5h101.5c10.9 0 16.2-5 16.2-14.8V207c0-6.3 3-9.6 8.9-9.6h4.3c8.2 0 12.5-4.6 12.5-14.5v-55.7c0-10-4.3-14.9-12.6-14.9Zm65.6-87.8h-.6c-1.1 0-1.6-.5-1.6-1.4V22c0-1.6-1-2.3-2.7-2.3h-13c-1.9 0-2.8.7-2.8 2.3v1c0 1-.4 1.5-1.6 1.5h-.7c-1.2 0-2 .9-2 2.5v18c0 1.6.8 2.4 2 2.4h.7c1.2 0 1.6.5 1.6 1.5v1c0 1.5.9 2.4 2.8 2.4h13c1.8 0 2.7-.9 2.7-2.3v-1.1c0-1 .5-1.5 1.6-1.5h.6c1.4 0 2-.8 2-2.4v-4c0-1.4-.7-2.1-2.2-2.1h-5.1c-1.4 0-2 .7-2 2v1.2c0 1.2-.6 1.8-1.6 1.8h-4.7c-1.2 0-1.8-.6-1.8-1.8V30c0-1.3.6-1.9 1.8-1.9h4.7c1 0 1.6.6 1.6 1.9v.8c0 1.2.7 1.8 1.9 1.8h5.2c1.5 0 2.2-.7 2.2-2.1V27c0-1.7-.6-2.5-2-2.5Z"
    />
    <path
        fill="#ffffff"
        d="M1549.3 10.1h-1.4c-2 0-3-.9-3-2.6V5.2c0-2.9-1.7-4.2-5.1-4.2h-35.1c-3.4 0-5 1.3-5 4.2v2.3c0 1.7-1.1 2.6-3.3 2.6h-1.2c-2.5 0-3.8 1.7-3.8 4.8v42.5c0 3 1.3 4.7 3.8 4.7h1.3c2.1 0 3.1 1 3.1 2.7V67c0 2.7 1.7 4.2 5 4.2h35.2c3.4 0 5.1-1.5 5.1-4.3v-2.2c0-1.8 1-2.7 3-2.7h1.3c2.6 0 3.8-1.6 3.8-4.7V14.9c0-3.1-1.2-4.8-3.8-4.8Zm-8.6 45c0 2.2-1.1 3.3-3.2 3.3H1507c-2 0-3.1-1.1-3.1-3.4V16.8c0-2.2 1-3.4 3.1-3.4h30.6c2.1 0 3.2 1.2 3.2 3.4V55ZM196.8 1.2h-36.5c-9.9 0-15.2 4.3-15.2 12.2v49.2c0 4.9-4 8.9-8.8 8.9h-38a8.6 8.6 0 0 0-8.5 8.5v8c0 4.9-2.6 7.2-7.9 7.2h-6.5c-5 0-9-4-9-9V13.5c0-8-4.9-12.2-14.7-12.2H14.8A14.6 14.6 0 0 0 0 16v195.5c0 8.1 6.6 14.8 14.8 14.8h36.9c9.8 0 14.8-4 14.8-12.2v-49.2c0-5 4-8.9 8.9-8.9h29.1c11.5 0 17.1-4.6 17.1-13.8v-6.3c0-5.9 3.3-8.8 10.2-8.8h4.4c5 0 9 4 9 8.8v78.2c0 8.2 5.2 12.2 15 12.2h37.3c8 0 14.4-6.5 14.4-14.5V16.3a15 15 0 0 0-15.1-15.1Z"
    />
</svg>